<svg xmlns="http://www.w3.org/2000/svg" viewBox="0 0 32 32" width="32" height="32">
  <defs>
    <linearGradient id="vibeflowGradient" x1="0%" y1="0%" x2="100%" y2="100%">
      <stop offset="0%" style="stop-color:#8B5CF6;stop-opacity:1" />
      <stop offset="50%" style="stop-color:#3B82F6;stop-opacity:1" />
      <stop offset="100%" style="stop-color:#10B981;stop-opacity:1" />
    </linearGradient>
    <filter id="glow" x="-50%" y="-50%" width="200%" height="200%">
      <feGaussianBlur stdDeviation="2" result="coloredBlur"/>
      <feMerge> 
        <feMergeNode in="coloredBlur"/>
        <feMergeNode in="SourceGraphic"/>
      </feMerge>
    </filter>
  </defs>
  
  <!-- Background rounded square -->
  <rect width="32" height="32" rx="8" ry="8" fill="url(#vibeflowGradient)" filter="url(#glow)"/>
  
  <!-- Brain icon optimized for favicon -->
  <g transform="translate(8, 8)" fill="white" opacity="0.95">
    <path d="M8 2c1.5 0 2.8 0.8 3.5 2C12.2 4 13 4.8 13 6c0 0.5-0.1 1-0.3 1.4C13.5 7.8 14 8.8 14 10c0 1.7-1.3 3-3 3-0.2 0-0.4 0-0.6-0.1C9.8 13.6 9 14 8 14s-1.8-0.4-2.4-1.1C5.4 13 5.2 13 5 13c-1.7 0-3-1.3-3-3 0-1.2 0.5-2.2 1.3-2.6C3.1 7 3 6.5 3 6c0-1.2 0.8-2 1.5-2C5.2 2.8 6.5 2 8 2z"/>
    <circle cx="6" cy="6" r="0.8" fill="rgba(255,255,255,0.3)"/>
    <circle cx="10" cy="6" r="0.8" fill="rgba(255,255,255,0.3)"/>
    <path d="M6 9c0.5 0 1 0.2 1.4 0.5C7.8 9.2 8.2 9 8.6 9c0.4 0 0.8 0.2 1.2 0.5C9.4 9.8 8.7 10 8 10s-1.4-0.2-1.8-0.5C6.6 9.2 6.3 9 6 9z" fill="rgba(255,255,255,0.4)"/>
  </g>
</svg>